<svg xmlns="http://www.w3.org/2000/svg" viewBox="0 0 897 172"><defs><style>.cls-1{fill:#a33336;}</style></defs><g id="圖層_2" data-name="圖層 2"><path class="cls-1" d="M2.65,112.4H24.18c-.58-1.07-.7-1.69-1.06-1.89C8.55,102.31,2.06,89.7,2.23,73.16c.2-18,0-36,0-54.49h57V71.76L111.57,18l40.57,40.74L99.74,110c.43.73.87,1.46,1.3,2.2h52.08v56.55c-2.28.11-4.38.29-6.49.29-15.08,0-30.19-.46-45.26.14-17.83.71-31.81-5.18-41.85-21v20.5H2.65Z"/><path class="cls-1" d="M257.68,96.53c2.81-3.4,5.7-6.93,8.71-10.61s5.9-7.33,8.71-10.94,5.47-7,7.95-10.3l.07-.1a21.45,21.45,0,0,1,17-8.39h23.3q-10.17,13-19.85,24.82t-21.18,24.41a142.34,142.34,0,0,1,11.88,13.8q6.15,8,11.89,16.58t10.55,17.11q4.77,8.57,8,15.62H306.08A24.37,24.37,0,0,1,285,156.36l-.08-.14q-3.92-6.74-8.32-13.48t-9.28-13a83.17,83.17,0,0,0-9.66-10.5v49.24H229.1V36.94A34.69,34.69,0,0,1,257.68,2.79h0Z"/><path class="cls-1" d="M374.43,53.2a52.45,52.45,0,0,1,21.09,3.2A32.36,32.36,0,0,1,409,65.58a35,35,0,0,1,7.19,14.53,79.25,79.25,0,0,1,2.11,19v66.21q-6.13,1.48-17.06,3.52a147.76,147.76,0,0,1-26.46,2A75.68,75.68,0,0,1,357.08,169a36.58,36.58,0,0,1-13.71-6.3,28,28,0,0,1-8.81-11.43c-2.06-4.7-3.07-10.46-3.07-17.3q0-9.83,3.54-16.66a29.33,29.33,0,0,1,9.49-10.89,40.58,40.58,0,0,1,13.61-5.88A69.48,69.48,0,0,1,374,98.69a82.47,82.47,0,0,1,9.88.53,41.36,41.36,0,0,1,7,1.39v-3q0-8.13-4.41-13t-15.34-4.91a87.11,87.11,0,0,0-14.38,1.18,57.31,57.31,0,0,0-12.27,3.3C340.7,72,346.18,54.48,374.43,53.2Zm2.3,93.12c2.81,0,5.5-.07,8-.21a53,53,0,0,0,6.14-.64V121.33a48.06,48.06,0,0,0-5.18-.85,52.84,52.84,0,0,0-6.33-.43,51.8,51.8,0,0,0-7.57.53,18.57,18.57,0,0,0-6.23,2,11.13,11.13,0,0,0-4.22,4.06,12.33,12.33,0,0,0-1.53,6.4q0,7.49,4.5,10.36C367.37,145.36,371.48,146.32,376.73,146.32Z"/><path class="cls-1" d="M518.81,118.77a91.51,91.51,0,0,1-2.21,20.5A43.3,43.3,0,0,1,508.93,156a37.24,37.24,0,0,1-14.77,11.31q-9.3,4.17-23.48,4.17-13.05,0-22.43-3.52l-.19-.07a17.11,17.11,0,0,1-9.93-22.18l4.55-11.82a82,82,0,0,0,11.9,6.41,34,34,0,0,0,13.8,2.77q10.94,0,15.72-6t4.79-20.09V50.43a29.91,29.91,0,0,1,29.92-29.91h0Z"/><path class="cls-1" d="M581.88,53.2A55.8,55.8,0,0,1,603,56.4a32.36,32.36,0,0,1,13.51,9.18,35,35,0,0,1,7.19,14.53,79.25,79.25,0,0,1,2.11,19v66.21q-6.13,1.48-17.06,3.52a147.76,147.76,0,0,1-26.46,2A75.68,75.68,0,0,1,564.53,169a36.58,36.58,0,0,1-13.71-6.3A28,28,0,0,1,542,151.23c-2.06-4.7-3.07-10.46-3.07-17.3q0-9.83,3.54-16.66A29.33,29.33,0,0,1,552,106.38a40.58,40.58,0,0,1,13.61-5.88,69.48,69.48,0,0,1,15.91-1.81,82.47,82.47,0,0,1,9.88.53,41.36,41.36,0,0,1,7,1.39v-3q0-8.13-4.41-13t-15.34-4.91a87.11,87.11,0,0,0-14.38,1.18A57.31,57.31,0,0,0,552,84.16C544.52,62.19,569.74,53.49,581.88,53.2Zm2.3,93.12c2.81,0,5.5-.07,8.05-.21a53,53,0,0,0,6.14-.64V121.33a48.06,48.06,0,0,0-5.18-.85,52.84,52.84,0,0,0-6.33-.43,51.8,51.8,0,0,0-7.57.53,18.49,18.49,0,0,0-6.23,2,11.13,11.13,0,0,0-4.22,4.06,12.33,12.33,0,0,0-1.53,6.4q0,7.49,4.5,10.36T584.18,146.32Z"/><path class="cls-1" d="M712.44,84.38q-3.84-1.06-9-2.24A50.41,50.41,0,0,0,692.3,81a45.77,45.77,0,0,0-6.42.53,33.55,33.55,0,0,0-5.65,1.17v85.86H651.66V80a24.13,24.13,0,0,1,17.91-23.47l.21-.05a93.62,93.62,0,0,1,23.29-2.67c1.54,0,3.39.11,5.56.32s4.34.5,6.53.85,4.33.78,6.51,1.29a28.59,28.59,0,0,1,5.56,1.81Z"/><path class="cls-1" d="M760.18,23.08h0V56.19H794.5A26.49,26.49,0,0,1,768,82.67h-7.83v39.52q0,10,3.16,16t12.75,6a49.2,49.2,0,0,0,9.49-1,45.06,45.06,0,0,0,8.92-2.66l4,24.77a75.32,75.32,0,0,1-11.5,4.06,60.89,60.89,0,0,1-15.53,1.71q-11.68,0-19.37-3.53a30.59,30.59,0,0,1-12.26-9.82,38.62,38.62,0,0,1-6.43-15.28,100.29,100.29,0,0,1-1.82-19.86V57.24A34.7,34.7,0,0,1,760.18,23.08Z"/><path class="cls-1" d="M850.09,53.2c8.36-1.19,15.47,1.07,21.09,3.2a32.4,32.4,0,0,1,13.52,9.18,35.15,35.15,0,0,1,7.19,14.53,79.25,79.25,0,0,1,2.11,19v66.21q-6.13,1.48-17.06,3.52a147.83,147.83,0,0,1-26.46,2A75.62,75.62,0,0,1,832.75,169a36.51,36.51,0,0,1-13.71-6.3,28.05,28.05,0,0,1-8.82-11.43q-3.08-7-3.07-17.3,0-9.83,3.55-16.66a29.15,29.15,0,0,1,9.49-10.89,40.4,40.4,0,0,1,13.61-5.88,69.41,69.41,0,0,1,15.91-1.81,82.18,82.18,0,0,1,9.87.53,41.3,41.3,0,0,1,7,1.39v-3q0-8.13-4.41-13t-15.34-4.91a87.11,87.11,0,0,0-14.38,1.18,57.15,57.15,0,0,0-12.27,3.3C816.49,67.05,829.34,56.14,850.09,53.2Zm2.3,93.12c2.82,0,5.5-.07,8.06-.21a53.29,53.29,0,0,0,6.14-.64V121.33a48.06,48.06,0,0,0-5.18-.85,52.84,52.84,0,0,0-6.33-.43,51.6,51.6,0,0,0-7.57.53,18.49,18.49,0,0,0-6.23,2,11.13,11.13,0,0,0-4.22,4.06,12.33,12.33,0,0,0-1.54,6.4q0,7.49,4.51,10.36T852.39,146.32Z"/><path class="cls-1" d="M156.77,20.86a7.8,7.8,0,0,1,4.39,1,3.67,3.67,0,0,1,1.52,3.24,3.72,3.72,0,0,1-.61,2.23,4.11,4.11,0,0,1-1.77,1.35c.25.32.52.69.8,1.11s.56.86.84,1.32.54.93.8,1.43.49,1,.71,1.46h-3.2l-.71-1.3c-.24-.44-.48-.87-.73-1.28s-.5-.81-.75-1.17-.49-.71-.74-1h-1.41V34h-2.86V21.2a15,15,0,0,1,1.93-.27C155.65,20.88,156.25,20.86,156.77,20.86Zm.17,2.5a4.79,4.79,0,0,0-.56,0l-.47,0V27h.81a4.73,4.73,0,0,0,2.31-.42,1.5,1.5,0,0,0,.7-1.4,1.46,1.46,0,0,0-.71-1.37A4.26,4.26,0,0,0,156.94,23.36Z"/><path class="cls-1" d="M158,36.8a10,10,0,1,1,10-10A10.05,10.05,0,0,1,158,36.8Zm0-17.28a7.25,7.25,0,1,0,7.24,7.24A7.25,7.25,0,0,0,158,19.52Z"/></g></svg>