<svg xmlns="http://www.w3.org/2000/svg" viewBox="0 0 200 184"><defs><style>.cls-1{fill:#a33336;}</style></defs><g id="圖層_3" data-name="圖層 3"><path class="cls-1" d="M1.29,115.61H27.21c-.7-1.28-.84-2-1.27-2.27C8.39,103.47.58,88.29.79,68.38,1,46.68.84,25,.84,2.77H69.46V66.69L132.42,2l48.84,49.05-63.08,61.63c.52.88,1,1.76,1.57,2.64h62.7v68.09c-2.75.13-5.28.35-7.81.35-18.17,0-36.36-.55-54.49.17-21.48.86-38.3-6.24-50.4-25.29v24.69H1.29Z"/><path class="cls-1" d="M186.35,5.83a9.2,9.2,0,0,1,5.2,1.24,4.34,4.34,0,0,1,1.81,3.85,4.42,4.42,0,0,1-.73,2.65,4.81,4.81,0,0,1-2.1,1.6c.31.38.63.83,1,1.32s.66,1,1,1.57.64,1.11,1,1.69.59,1.17.85,1.73h-3.8c-.28-.5-.56-1-.84-1.54s-.58-1-.88-1.51-.59-1-.89-1.4a13.63,13.63,0,0,0-.87-1.19h-1.68v5.64h-3.4V6.24a18.73,18.73,0,0,1,2.3-.32Q185.4,5.83,186.35,5.83Zm.19,3a6.38,6.38,0,0,0-.66,0l-.56,0v4.2h1a5.8,5.8,0,0,0,2.75-.49,1.8,1.8,0,0,0,.82-1.68A1.71,1.71,0,0,0,189,9.28,5.11,5.11,0,0,0,186.54,8.8Z"/><path class="cls-1" d="M187.76,24.76a11.92,11.92,0,1,1,11.92-11.91A11.92,11.92,0,0,1,187.76,24.76Zm0-20.52a8.61,8.61,0,1,0,8.61,8.61A8.61,8.61,0,0,0,187.76,4.24Z"/></g></svg>