<svg id="圖層_1" data-name="圖層 1" xmlns="http://www.w3.org/2000/svg" viewBox="0 0 200 259"><defs><style>.cls-1{fill:#a33336;}</style></defs><path class="cls-1" d="M4.15,113.2h25.6c-.69-1.27-.84-2-1.26-2.24-17.33-9.76-25-24.74-24.84-44.41.23-21.43.06-42.86.06-64.79H71.47V64.89L133.65,1l48.24,48.45-62.3,60.86,1.54,2.61h61.93v67.25c-2.72.13-5.22.34-7.72.34-17.94,0-35.9-.54-53.81.17-21.21.85-37.82-6.16-49.77-25v24.37H4.15Z"/><path class="cls-1" d="M8.39,238c.78-.94,1.58-1.92,2.41-2.94s1.64-2,2.42-3,1.51-1.95,2.2-2.85l0,0a6,6,0,0,1,4.71-2.32h6.46q-2.82,3.6-5.5,6.87t-5.87,6.77a38.26,38.26,0,0,1,3.29,3.82q1.71,2.22,3.3,4.59c1.06,1.58,2,3.17,2.92,4.74s1.63,3,2.23,4.33H21.8A6.77,6.77,0,0,1,16,254.62l0,0c-.72-1.24-1.49-2.49-2.3-3.73s-1.67-2.45-2.57-3.59a23.49,23.49,0,0,0-2.68-2.91V258H.47V221.53a9.62,9.62,0,0,1,7.92-9.46h0Z"/><path class="cls-1" d="M40.73,226a14.48,14.48,0,0,1,5.85.88,9.09,9.09,0,0,1,3.74,2.55,9.76,9.76,0,0,1,2,4,22,22,0,0,1,.58,5.27V257.1c-1.13.28-2.71.61-4.73,1a40.41,40.41,0,0,1-7.33.56,20.7,20.7,0,0,1-4.91-.53,10.3,10.3,0,0,1-3.8-1.74,7.8,7.8,0,0,1-2.44-3.17,11.94,11.94,0,0,1-.85-4.79,9.86,9.86,0,0,1,1-4.62,8.14,8.14,0,0,1,2.63-3,11.26,11.26,0,0,1,3.77-1.63,19.42,19.42,0,0,1,4.41-.5,22,22,0,0,1,2.73.15,12.24,12.24,0,0,1,2,.38v-.82a5.17,5.17,0,0,0-1.23-3.61c-.81-.91-2.23-1.37-4.25-1.37a24,24,0,0,0-4,.33,15.59,15.59,0,0,0-3.4.92C31.39,231.25,32.91,226.39,40.73,226Zm.64,25.8c.78,0,1.53,0,2.23-.06a14.07,14.07,0,0,0,1.71-.18v-6.69c-.32-.07-.8-.15-1.44-.23a14.17,14.17,0,0,0-1.75-.12,13.83,13.83,0,0,0-2.1.15,5,5,0,0,0-1.73.56,3.22,3.22,0,0,0-1.17,1.12,3.47,3.47,0,0,0-.42,1.78A3.15,3.15,0,0,0,38,251,6.32,6.32,0,0,0,41.37,251.84Z"/><path class="cls-1" d="M80.74,244.21a25.07,25.07,0,0,1-.62,5.67A11.81,11.81,0,0,1,78,254.53a10.35,10.35,0,0,1-4.09,3.14,16,16,0,0,1-6.51,1.15,17.68,17.68,0,0,1-6.21-1l0,0a4.75,4.75,0,0,1-2.76-6.15l1.27-3.27a22,22,0,0,0,3.29,1.77,9.46,9.46,0,0,0,3.83.77,5.25,5.25,0,0,0,4.35-1.66c.89-1.1,1.33-3,1.33-5.56V225.27A8.29,8.29,0,0,1,80.74,217h0Z"/><path class="cls-1" d="M98.21,226a15.32,15.32,0,0,1,5.84.88,9.13,9.13,0,0,1,3.75,2.55,9.75,9.75,0,0,1,2,4,22,22,0,0,1,.59,5.27V257.1c-1.14.28-2.71.61-4.73,1a40.41,40.41,0,0,1-7.33.56,20.59,20.59,0,0,1-4.91-.53,10.3,10.3,0,0,1-3.8-1.74,7.72,7.72,0,0,1-2.44-3.17,11.93,11.93,0,0,1-.86-4.79,9.86,9.86,0,0,1,1-4.62,8.05,8.05,0,0,1,2.63-3,11.17,11.17,0,0,1,3.77-1.63,19.29,19.29,0,0,1,4.41-.5,22.09,22.09,0,0,1,2.73.15,11.86,11.86,0,0,1,1.94.38v-.82a5.21,5.21,0,0,0-1.22-3.61c-.82-.91-2.23-1.37-4.25-1.37a24.14,24.14,0,0,0-4,.33,15.49,15.49,0,0,0-3.39.92C87.86,228.53,94.85,226.12,98.21,226Zm.64,25.8c.78,0,1.52,0,2.23-.06a13.65,13.65,0,0,0,1.7-.18v-6.69c-.32-.07-.8-.15-1.43-.23a14.32,14.32,0,0,0-1.76-.12,13.79,13.79,0,0,0-2.09.15,5,5,0,0,0-1.73.56,3.08,3.08,0,0,0-1.17,1.12,3.47,3.47,0,0,0-.42,1.78A3.14,3.14,0,0,0,95.42,251,6.38,6.38,0,0,0,98.85,251.84Z"/><path class="cls-1" d="M134.38,234.68q-1-.3-2.49-.63a14.34,14.34,0,0,0-3.08-.32,12.64,12.64,0,0,0-1.78.15,11.06,11.06,0,0,0-1.57.32V258h-7.91V233.47a6.68,6.68,0,0,1,5-6.5l.06,0a26.22,26.22,0,0,1,6.45-.74c.43,0,.94,0,1.54.09s1.2.14,1.81.24,1.2.22,1.8.36a7.14,7.14,0,0,1,1.54.5Z"/><path class="cls-1" d="M147.61,217.69h0v9.18h9.51a7.34,7.34,0,0,1-7.34,7.33h-2.17v11a9.46,9.46,0,0,0,.88,4.44c.58,1.1,1.76,1.66,3.53,1.66a13.42,13.42,0,0,0,2.63-.27,12.33,12.33,0,0,0,2.47-.74l1.12,6.86a20.84,20.84,0,0,1-3.19,1.13,17,17,0,0,1-4.3.47,12.93,12.93,0,0,1-5.37-1A8.45,8.45,0,0,1,142,255a10.68,10.68,0,0,1-1.78-4.23,28.23,28.23,0,0,1-.5-5.5V227.16A9.62,9.62,0,0,1,147.61,217.69Z"/><path class="cls-1" d="M172.52,226a11.53,11.53,0,0,1,5.85.88,9.09,9.09,0,0,1,3.74,2.55,9.63,9.63,0,0,1,2,4,22,22,0,0,1,.59,5.27V257.1c-1.13.28-2.71.61-4.73,1a40.41,40.41,0,0,1-7.33.56,20.7,20.7,0,0,1-4.91-.53,10.3,10.3,0,0,1-3.8-1.74,7.8,7.8,0,0,1-2.44-3.17,11.94,11.94,0,0,1-.85-4.79,9.86,9.86,0,0,1,1-4.62,8.14,8.14,0,0,1,2.63-3,11.26,11.26,0,0,1,3.77-1.63,19.42,19.42,0,0,1,4.41-.5,22,22,0,0,1,2.73.15,11.86,11.86,0,0,1,1.94.38v-.82a5.16,5.16,0,0,0-1.22-3.61c-.81-.91-2.23-1.37-4.25-1.37a24,24,0,0,0-4,.33,15.59,15.59,0,0,0-3.4.92C163.22,229.87,166.77,226.85,172.52,226Zm.64,25.8c.78,0,1.53,0,2.23-.06a13.65,13.65,0,0,0,1.7-.18v-6.69c-.31-.07-.79-.15-1.43-.23a14.17,14.17,0,0,0-1.75-.12,13.83,13.83,0,0,0-2.1.15,5,5,0,0,0-1.73.56,3.22,3.22,0,0,0-1.17,1.12,3.47,3.47,0,0,0-.42,1.78,3.15,3.15,0,0,0,1.25,2.87A6.32,6.32,0,0,0,173.16,251.84Z"/><path class="cls-1" d="M186.89,5.57A9,9,0,0,1,192,6.79a4.26,4.26,0,0,1,1.78,3.79,4.37,4.37,0,0,1-.72,2.6A4.8,4.8,0,0,1,191,14.75c.3.38.62.81.95,1.3s.65,1,1,1.54.63,1.09.93,1.67.58,1.14.84,1.7H191c-.27-.5-.55-1-.82-1.52s-.57-1-.87-1.49-.58-.94-.87-1.37a14.41,14.41,0,0,0-.86-1.18h-1.65V21h-3.34V6a18.09,18.09,0,0,1,2.26-.31C185.58,5.6,186.28,5.57,186.89,5.57Zm.19,2.92-.65,0-.55.05v4.12h1a5.64,5.64,0,0,0,2.7-.48,1.76,1.76,0,0,0,.81-1.65A1.68,1.68,0,0,0,189.51,9,5,5,0,0,0,187.08,8.49Z"/><path class="cls-1" d="M188.28,24.18A11.72,11.72,0,1,1,200,12.47,11.72,11.72,0,0,1,188.28,24.18Zm0-20.18a8.47,8.47,0,1,0,8.47,8.47A8.48,8.48,0,0,0,188.28,4Z"/></svg>